<svg xmlns="http://www.w3.org/2000/svg" xmlns:xlink="http://www.w3.org/1999/xlink" width="500" zoomAndPan="magnify" viewBox="0 0 375 374.999991" height="500" preserveAspectRatio="xMidYMid meet" version="1.0"><defs><g/><clipPath id="5f88aaac3c"><path d="M 15.914062 141.128906 L 69.914062 141.128906 L 69.914062 213.878906 L 15.914062 213.878906 Z M 15.914062 141.128906 " clip-rule="nonzero"/></clipPath></defs><g clip-path="url(#5f88aaac3c)"><path fill="#ffffff" d="M 20.996094 213.871094 L 15.914062 213.871094 L 15.914062 141.15625 L 48.140625 141.15625 C 53.867188 141.15625 59.253906 143.386719 63.300781 147.4375 C 67.351562 151.488281 69.582031 156.871094 69.582031 162.597656 C 69.582031 168.324219 67.351562 173.710938 63.300781 177.757812 C 59.253906 181.808594 53.867188 184.039062 48.140625 184.039062 L 26.648438 184.039062 L 26.648438 168.078125 C 26.648438 161.90625 31.667969 156.886719 37.835938 156.886719 L 56.183594 156.886719 L 56.183594 173.039062 L 51.101562 173.039062 L 51.101562 161.972656 L 37.835938 161.972656 C 34.46875 161.972656 31.730469 164.710938 31.730469 168.078125 L 31.730469 178.957031 L 48.140625 178.957031 C 57.160156 178.957031 64.5 171.617188 64.5 162.601562 C 64.5 153.582031 57.160156 146.242188 48.140625 146.242188 L 20.996094 146.242188 Z M 56.308594 203.773438 L 56.308594 188.402344 L 27.074219 188.402344 L 27.074219 193.484375 L 51.226562 193.484375 L 51.226562 203.773438 C 51.226562 206.371094 49.109375 208.488281 46.511719 208.488281 L 31.730469 208.488281 L 31.730469 198.605469 L 26.648438 198.605469 L 26.648438 213.570312 L 46.511719 213.570312 C 51.914062 213.570312 56.308594 209.175781 56.308594 203.773438 Z M 56.308594 203.773438 " fill-opacity="1" fill-rule="nonzero"/></g><g fill="#ffffff" fill-opacity="1"><g transform="translate(69.590126, 212.565628)"><g><path d="M 18.640625 0 L 6.890625 0 L 6.890625 -49.90625 L 18.15625 -49.90625 L 18.15625 -40.875 C 19.320312 -43.632812 21.035156 -45.828125 23.296875 -47.453125 C 25.566406 -49.085938 28.320312 -49.90625 31.5625 -49.90625 L 36.90625 -49.90625 L 36.90625 -39.8125 L 32.1875 -39.8125 C 29.5 -39.8125 27.132812 -39.160156 25.09375 -37.859375 C 23.0625 -36.566406 21.476562 -34.691406 20.34375 -32.234375 C 19.207031 -29.773438 18.640625 -26.765625 18.640625 -23.203125 Z M 18.640625 0 "/></g></g></g><g fill="#ffffff" fill-opacity="1"><g transform="translate(107.991668, 212.565628)"><g><path d="M 26.84375 1.5 C 23.476562 1.5 20.363281 0.820312 17.5 -0.53125 C 14.632812 -1.894531 12.140625 -3.789062 10.015625 -6.21875 C 7.898438 -8.644531 6.257812 -11.457031 5.09375 -14.65625 C 3.925781 -17.863281 3.34375 -21.296875 3.34375 -24.953125 C 3.34375 -28.609375 3.929688 -32.03125 5.109375 -35.21875 C 6.296875 -38.414062 7.945312 -41.226562 10.0625 -43.65625 C 12.1875 -46.082031 14.671875 -47.984375 17.515625 -49.359375 C 20.367188 -50.734375 23.460938 -51.421875 26.796875 -51.421875 C 30.878906 -51.421875 34.503906 -50.535156 37.671875 -48.765625 C 40.847656 -47.003906 43.226562 -44.570312 44.8125 -41.46875 L 44.8125 -49.90625 L 55.984375 -49.90625 L 55.984375 0 L 44.8125 0 L 44.8125 -8.40625 C 43.195312 -5.289062 40.8125 -2.859375 37.65625 -1.109375 C 34.5 0.628906 30.894531 1.5 26.84375 1.5 Z M 29.671875 -9.375 C 31.703125 -9.375 33.609375 -9.769531 35.390625 -10.5625 C 37.171875 -11.351562 38.734375 -12.453125 40.078125 -13.859375 C 41.421875 -15.265625 42.460938 -16.914062 43.203125 -18.8125 C 43.953125 -20.707031 44.328125 -22.753906 44.328125 -24.953125 C 44.328125 -27.117188 43.945312 -29.148438 43.1875 -31.046875 C 42.425781 -32.941406 41.378906 -34.597656 40.046875 -36.015625 C 38.722656 -37.441406 37.171875 -38.550781 35.390625 -39.34375 C 33.609375 -40.144531 31.703125 -40.546875 29.671875 -40.546875 C 26.984375 -40.546875 24.53125 -39.894531 22.3125 -38.59375 C 20.09375 -37.300781 18.316406 -35.488281 16.984375 -33.15625 C 15.660156 -30.832031 15 -28.097656 15 -24.953125 C 15 -21.710938 15.671875 -18.925781 17.015625 -16.59375 C 18.359375 -14.269531 20.144531 -12.484375 22.375 -11.234375 C 24.613281 -9.992188 27.046875 -9.375 29.671875 -9.375 Z M 29.671875 -9.375 "/></g></g></g><g fill="#ffffff" fill-opacity="1"><g transform="translate(170.861447, 212.565628)"><g><path d="M 37.578125 0 L 27.4375 0 C 25.945312 0 24.414062 -0.132812 22.84375 -0.40625 C 21.269531 -0.6875 19.769531 -1.195312 18.34375 -1.9375 C 16.925781 -2.6875 15.65625 -3.765625 14.53125 -5.171875 C 13.414062 -6.578125 12.523438 -8.40625 11.859375 -10.65625 C 11.203125 -12.90625 10.875 -15.679688 10.875 -18.984375 L 10.875 -39.8125 L 0.53125 -39.8125 L 0.53125 -49.90625 L 10.875 -49.90625 L 10.875 -64.53125 L 22.625 -64.625 L 22.625 -49.90625 L 37.578125 -49.90625 L 37.578125 -39.8125 L 22.625 -39.8125 L 22.625 -18.453125 C 22.625 -16.117188 22.960938 -14.320312 23.640625 -13.0625 C 24.328125 -11.800781 25.226562 -10.9375 26.34375 -10.46875 C 27.457031 -10 28.628906 -9.765625 29.859375 -9.765625 L 37.578125 -9.765625 Z M 37.578125 0 "/></g></g></g><g fill="#ffffff" fill-opacity="1"><g transform="translate(211.059267, 212.565628)"><g><path d="M 18.640625 0 L 6.890625 0 L 6.890625 -68.359375 L 18.640625 -68.359375 L 18.640625 -48.015625 L 18.359375 -42.4375 C 19.910156 -45.15625 22.132812 -47.332031 25.03125 -48.96875 C 27.925781 -50.601562 31.285156 -51.421875 35.109375 -51.421875 C 41.804688 -51.421875 46.820312 -49.289062 50.15625 -45.03125 C 53.488281 -40.78125 55.15625 -34.738281 55.15625 -26.90625 L 55.15625 0 L 43.40625 0 L 43.40625 -26.65625 C 43.40625 -31.601562 42.367188 -35.160156 40.296875 -37.328125 C 38.222656 -39.503906 35.40625 -40.59375 31.84375 -40.59375 C 30.132812 -40.59375 28.484375 -40.226562 26.890625 -39.5 C 25.304688 -38.769531 23.890625 -37.738281 22.640625 -36.40625 C 21.398438 -35.082031 20.421875 -33.488281 19.703125 -31.625 C 18.992188 -29.769531 18.640625 -27.722656 18.640625 -25.484375 Z M 18.640625 0 "/></g></g></g><g fill="#ffffff" fill-opacity="1"><g transform="translate(272.715344, 212.565628)"><g><path d="M 12.671875 -57.6875 C 10.410156 -57.6875 8.640625 -58.335938 7.359375 -59.640625 C 6.078125 -60.953125 5.4375 -62.550781 5.4375 -64.4375 C 5.4375 -66.25 6.078125 -67.816406 7.359375 -69.140625 C 8.640625 -70.460938 10.425781 -71.125 12.71875 -71.125 C 15.082031 -71.125 16.898438 -70.460938 18.171875 -69.140625 C 19.453125 -67.816406 20.09375 -66.25 20.09375 -64.4375 C 20.09375 -62.550781 19.453125 -60.953125 18.171875 -59.640625 C 16.898438 -58.335938 15.066406 -57.6875 12.671875 -57.6875 Z M 18.640625 0 L 6.890625 0 L 6.890625 -49.90625 L 18.640625 -49.90625 Z M 18.640625 0 "/></g></g></g><g fill="#ffffff" fill-opacity="1"><g transform="translate(298.203093, 212.565628)"><g><path d="M 52.6875 0 L 39.46875 0 L 26.515625 -22.484375 L 18.640625 -13.890625 L 18.640625 0 L 6.890625 0 L 6.890625 -68.359375 L 18.640625 -68.359375 L 18.640625 -26.515625 L 36.21875 -49.90625 L 50.546875 -49.90625 L 35.0625 -30.15625 Z M 52.6875 0 "/></g></g></g></svg>