<svg xmlns="http://www.w3.org/2000/svg" xmlns:xlink="http://www.w3.org/1999/xlink" width="500" zoomAndPan="magnify" viewBox="0 0 375 374.999991" height="500" preserveAspectRatio="xMidYMid meet" version="1.0"><defs><clipPath id="8b9de5d7b5"><path d="M 80.203125 42.015625 L 294.703125 42.015625 L 294.703125 333 L 80.203125 333 Z M 80.203125 42.015625 " clip-rule="nonzero"/></clipPath></defs><g clip-path="url(#8b9de5d7b5)"><path fill="#000000" d="M 100.523438 332.886719 L 80.203125 332.886719 L 80.203125 42.136719 L 209.007812 42.136719 C 231.894531 42.136719 253.414062 51.050781 269.597656 67.25 C 285.78125 83.441406 294.699219 104.972656 294.699219 127.867188 C 294.699219 150.765625 285.785156 172.296875 269.597656 188.488281 C 253.414062 204.679688 231.894531 213.601562 209.007812 213.601562 L 123.105469 213.601562 L 123.105469 149.773438 C 123.105469 125.105469 143.164062 105.035156 167.820312 105.035156 L 241.152344 105.035156 L 241.152344 169.625 L 220.832031 169.625 L 220.832031 125.363281 L 167.820312 125.363281 C 154.367188 125.363281 143.421875 136.316406 143.421875 149.773438 L 143.421875 193.277344 L 209.007812 193.277344 C 245.054688 193.277344 274.378906 163.9375 274.378906 127.875 C 274.378906 91.8125 245.054688 62.464844 209.007812 62.464844 L 100.523438 62.464844 Z M 241.648438 292.507812 L 241.648438 231.046875 L 124.816406 231.046875 L 124.816406 251.375 L 221.332031 251.375 L 221.332031 292.507812 C 221.332031 302.902344 212.882812 311.355469 202.496094 311.355469 L 143.421875 311.355469 L 143.421875 271.851562 L 123.105469 271.851562 L 123.105469 331.683594 L 202.496094 331.683594 C 224.085938 331.683594 241.648438 314.109375 241.648438 292.507812 Z M 241.648438 292.507812 " fill-opacity="1" fill-rule="nonzero"/></g></svg>